<mxfile host="app.diagrams.net" modified="2023-05-27T14:19:40.270Z" agent="5.0 (X11)" etag="u6E5X8MMwt7ZpH5963ZL" version="20.0.1" type="github">
  <diagram id="T0BWjntpLIgXTd5-ePrZ" name="Page-1">
    <mxGraphModel dx="981" dy="552" grid="1" gridSize="10" guides="1" tooltips="1" connect="1" arrows="1" fold="1" page="1" pageScale="1" pageWidth="850" pageHeight="1100" math="0" shadow="0">
      <root>
        <mxCell id="0" />
        <mxCell id="1" parent="0" />
        <mxCell id="qYM-nnsxaRbe6-iNxBpG-46" value="http" style="edgeStyle=none;rounded=0;orthogonalLoop=1;jettySize=auto;html=1;endArrow=classic;endFill=1;entryX=0.5;entryY=0;entryDx=0;entryDy=0;" edge="1" parent="1" source="qYM-nnsxaRbe6-iNxBpG-1" target="qYM-nnsxaRbe6-iNxBpG-6">
          <mxGeometry relative="1" as="geometry">
            <mxPoint x="340" y="180" as="targetPoint" />
          </mxGeometry>
        </mxCell>
        <mxCell id="qYM-nnsxaRbe6-iNxBpG-1" value="&lt;div&gt;UI&lt;/div&gt;&lt;div&gt;(next / react)&lt;br&gt;&lt;/div&gt;" style="rounded=0;whiteSpace=wrap;html=1;" vertex="1" parent="1">
          <mxGeometry x="280" y="60" width="120" height="60" as="geometry" />
        </mxCell>
        <mxCell id="qYM-nnsxaRbe6-iNxBpG-14" value="&lt;div&gt;http&lt;/div&gt;" style="edgeStyle=orthogonalEdgeStyle;rounded=0;orthogonalLoop=1;jettySize=auto;html=1;" edge="1" parent="1" source="qYM-nnsxaRbe6-iNxBpG-6" target="qYM-nnsxaRbe6-iNxBpG-7">
          <mxGeometry relative="1" as="geometry" />
        </mxCell>
        <mxCell id="qYM-nnsxaRbe6-iNxBpG-36" value="http?" style="edgeStyle=none;rounded=0;orthogonalLoop=1;jettySize=auto;html=1;exitX=0.75;exitY=1;exitDx=0;exitDy=0;entryX=0.5;entryY=0;entryDx=0;entryDy=0;" edge="1" parent="1" source="qYM-nnsxaRbe6-iNxBpG-6" target="qYM-nnsxaRbe6-iNxBpG-8">
          <mxGeometry relative="1" as="geometry">
            <mxPoint x="490" y="280" as="targetPoint" />
            <Array as="points">
              <mxPoint x="370" y="340" />
              <mxPoint x="510" y="340" />
            </Array>
          </mxGeometry>
        </mxCell>
        <mxCell id="qYM-nnsxaRbe6-iNxBpG-6" value="NGINX" style="rounded=0;whiteSpace=wrap;html=1;fillColor=default;" vertex="1" parent="1">
          <mxGeometry x="280" y="250" width="120" height="60" as="geometry" />
        </mxCell>
        <mxCell id="qYM-nnsxaRbe6-iNxBpG-27" value="asgi" style="edgeStyle=none;rounded=0;orthogonalLoop=1;jettySize=auto;html=1;entryX=0.583;entryY=0;entryDx=0;entryDy=0;entryPerimeter=0;" edge="1" parent="1" source="qYM-nnsxaRbe6-iNxBpG-7" target="qYM-nnsxaRbe6-iNxBpG-11">
          <mxGeometry relative="1" as="geometry">
            <mxPoint x="300" y="450" as="targetPoint" />
          </mxGeometry>
        </mxCell>
        <mxCell id="qYM-nnsxaRbe6-iNxBpG-7" value="uvicorn" style="rounded=0;whiteSpace=wrap;html=1;fillColor=default;" vertex="1" parent="1">
          <mxGeometry x="280" y="370" width="120" height="60" as="geometry" />
        </mxCell>
        <mxCell id="qYM-nnsxaRbe6-iNxBpG-8" value="&lt;div&gt;static assets&lt;/div&gt;" style="rounded=0;whiteSpace=wrap;html=1;fillColor=default;" vertex="1" parent="1">
          <mxGeometry x="450" y="360" width="120" height="60" as="geometry" />
        </mxCell>
        <mxCell id="qYM-nnsxaRbe6-iNxBpG-10" value="&lt;div&gt;storage&lt;/div&gt;&lt;div&gt;(postgres)&lt;br&gt;&lt;/div&gt;" style="rounded=0;whiteSpace=wrap;html=1;fillColor=default;" vertex="1" parent="1">
          <mxGeometry x="520" y="490" width="120" height="60" as="geometry" />
        </mxCell>
        <mxCell id="qYM-nnsxaRbe6-iNxBpG-11" value="" style="rounded=0;whiteSpace=wrap;html=1;fillColor=default;" vertex="1" parent="1">
          <mxGeometry x="270" y="480" width="120" height="60" as="geometry" />
        </mxCell>
        <mxCell id="qYM-nnsxaRbe6-iNxBpG-24" value="" style="rounded=0;whiteSpace=wrap;html=1;fillColor=default;" vertex="1" parent="1">
          <mxGeometry x="280" y="490" width="120" height="60" as="geometry" />
        </mxCell>
        <mxCell id="qYM-nnsxaRbe6-iNxBpG-25" value="&lt;div&gt;ignition web api&lt;/div&gt;&lt;div&gt;(litestar)&lt;/div&gt;" style="rounded=0;whiteSpace=wrap;html=1;fillColor=default;" vertex="1" parent="1">
          <mxGeometry x="290" y="500" width="120" height="60" as="geometry" />
        </mxCell>
        <mxCell id="qYM-nnsxaRbe6-iNxBpG-28" value="sqlalchemy" style="endArrow=classic;html=1;rounded=0;entryX=0;entryY=0.5;entryDx=0;entryDy=0;exitX=1;exitY=0.333;exitDx=0;exitDy=0;exitPerimeter=0;" edge="1" parent="1" source="qYM-nnsxaRbe6-iNxBpG-25" target="qYM-nnsxaRbe6-iNxBpG-10">
          <mxGeometry width="50" height="50" relative="1" as="geometry">
            <mxPoint x="430" y="550" as="sourcePoint" />
            <mxPoint x="340" y="570" as="targetPoint" />
          </mxGeometry>
        </mxCell>
        <mxCell id="qYM-nnsxaRbe6-iNxBpG-35" value="socket / websocket" style="edgeStyle=none;rounded=0;orthogonalLoop=1;jettySize=auto;html=1;entryX=0.583;entryY=0;entryDx=0;entryDy=0;entryPerimeter=0;" edge="1" parent="1" source="qYM-nnsxaRbe6-iNxBpG-29" target="qYM-nnsxaRbe6-iNxBpG-30">
          <mxGeometry relative="1" as="geometry">
            <mxPoint x="220" y="720" as="targetPoint" />
          </mxGeometry>
        </mxCell>
        <mxCell id="qYM-nnsxaRbe6-iNxBpG-29" value="&lt;div&gt;ignition execution&lt;/div&gt;&lt;div&gt;master&lt;br&gt;&lt;/div&gt;" style="rounded=0;whiteSpace=wrap;html=1;fillColor=default;" vertex="1" parent="1">
          <mxGeometry x="280" y="610" width="120" height="60" as="geometry" />
        </mxCell>
        <mxCell id="qYM-nnsxaRbe6-iNxBpG-30" value="" style="rounded=0;whiteSpace=wrap;html=1;fillColor=default;" vertex="1" parent="1">
          <mxGeometry x="270" y="750" width="120" height="60" as="geometry" />
        </mxCell>
        <mxCell id="qYM-nnsxaRbe6-iNxBpG-31" value="" style="rounded=0;whiteSpace=wrap;html=1;fillColor=default;" vertex="1" parent="1">
          <mxGeometry x="280" y="760" width="120" height="60" as="geometry" />
        </mxCell>
        <mxCell id="qYM-nnsxaRbe6-iNxBpG-32" value="&lt;div&gt;ignition execution&lt;/div&gt;&lt;div&gt;worker&lt;br&gt;&lt;/div&gt;&lt;div&gt;(containerized)&lt;br&gt;&lt;/div&gt;" style="rounded=0;whiteSpace=wrap;html=1;fillColor=default;" vertex="1" parent="1">
          <mxGeometry x="290" y="770" width="120" height="60" as="geometry" />
        </mxCell>
        <mxCell id="qYM-nnsxaRbe6-iNxBpG-34" value="&lt;div&gt;socket / websocket&lt;/div&gt;" style="endArrow=classic;html=1;rounded=0;entryX=0.5;entryY=0;entryDx=0;entryDy=0;exitX=0.417;exitY=1;exitDx=0;exitDy=0;exitPerimeter=0;" edge="1" parent="1" source="qYM-nnsxaRbe6-iNxBpG-25" target="qYM-nnsxaRbe6-iNxBpG-29">
          <mxGeometry width="50" height="50" relative="1" as="geometry">
            <mxPoint x="180" y="580" as="sourcePoint" />
            <mxPoint x="390" y="550" as="targetPoint" />
          </mxGeometry>
        </mxCell>
        <mxCell id="qYM-nnsxaRbe6-iNxBpG-42" style="edgeStyle=none;rounded=0;orthogonalLoop=1;jettySize=auto;html=1;exitX=0.5;exitY=0;exitDx=0;exitDy=0;entryX=0;entryY=0;entryDx=0;entryDy=0;endArrow=none;endFill=0;" edge="1" parent="1" source="qYM-nnsxaRbe6-iNxBpG-37" target="qYM-nnsxaRbe6-iNxBpG-37">
          <mxGeometry relative="1" as="geometry">
            <mxPoint x="340" y="660" as="targetPoint" />
            <mxPoint x="390" y="690" as="sourcePoint" />
          </mxGeometry>
        </mxCell>
        <mxCell id="qYM-nnsxaRbe6-iNxBpG-37" value="" style="rounded=0;whiteSpace=wrap;html=1;fillColor=none;" vertex="1" parent="1">
          <mxGeometry x="240" y="730" width="200" height="120" as="geometry" />
        </mxCell>
        <mxCell id="qYM-nnsxaRbe6-iNxBpG-43" value="docker" style="text;html=1;strokeColor=none;fillColor=none;align=center;verticalAlign=middle;whiteSpace=wrap;rounded=0;" vertex="1" parent="1">
          <mxGeometry x="240" y="710" width="60" height="30" as="geometry" />
        </mxCell>
        <mxCell id="qYM-nnsxaRbe6-iNxBpG-45" value="backend" style="text;html=1;strokeColor=none;fillColor=none;align=center;verticalAlign=middle;whiteSpace=wrap;rounded=0;" vertex="1" parent="1">
          <mxGeometry x="200" y="170" width="60" height="30" as="geometry" />
        </mxCell>
        <mxCell id="qYM-nnsxaRbe6-iNxBpG-47" value="" style="rounded=0;whiteSpace=wrap;html=1;fillColor=none;" vertex="1" parent="1">
          <mxGeometry x="200" y="200" width="480" height="680" as="geometry" />
        </mxCell>
      </root>
    </mxGraphModel>
  </diagram>
</mxfile>
